# xmcd
#
# Track frame offsets:
#	150
#	13187
#	28830
#	43647
#	58135
#	72557
#	87010
#	100537
#	115027
#	128192
#	141405
#	156570
#	171697
#	187740
#	202917
#	217107
#	230867
#	244972
#	259515
#	272295
#	285342
#	298162
#	312257
#	325582
#
# Disc length: 4519 seconds
#
# Revision: 1
# Processed by: cddbd v1.5.1PL0 Copyright (c) Steve Scherf et al.
# Submitted via: audiograbber 1.83.01
#
DISCID=6b11a518
DTITLE=Various Artist - Texas: Black Country Dance Music, 1927-1935
DYEAR=1993
DGENRE=Blues
TTITLE0=Dallas String Band - Dallas Rag
TTITLE1=Dallas String Band - Sweet Mama Blues
TTITLE2=Dallas String Band - So Tired
TTITLE3=Dallas String Band - Hokum Blues
TTITLE4=Dallas String Band - Chasin' Rainbows
TTITLE5=Dallas String Band - I Used To Call Her Baby
TTITLE6=Dallas String Band - Shine
TTITLE7=Dallas String Band - Sugar Blues
TTITLE8=William McCoy - Mama Blues
TTITLE9=William McCoy - Train Imitations and The Fox Chase
TTITLE10=William McCoy - Just It
TTITLE11=William McCoy - How Long Baby
TTITLE12=William McCoy - Out Of Doors Blues
TTITLE13=William McCoy - Central Tracks Blues
TTITLE14=Will Day - Central Avenue Blues
TTITLE15=Will Day - Sunrise Blues
TTITLE16=Frenchy's String Band - Texas and Pacific Blues
TTITLE17=Frenchy's String Band - Sunshine Special
TTITLE18=Jake Jones and the Gold Front Boys - Monkeyin' Around
TTITLE19=Jake Jones and the Gold Front Boys - Southern Sea Blues
TTITLE20=Carl Davis and the Dallas Jamboree Jug Band - Elm Street Woman Blues
TTITLE21=Carl Davis and the Dallas Jamboree Jug Band - It May Be My Last Night
TTITLE22=Carl Davis and the Dallas Jamboree Jug Band - Dusting the Frets
TTITLE23=Carl Davis and the Dallas Jamboree Jug Band - Flying Crow Blues
EXTD=
EXTT0=
EXTT1=
EXTT2=
EXTT3=
EXTT4=
EXTT5=
EXTT6=
EXTT7=
EXTT8=
EXTT9=
EXTT10=
EXTT11=
EXTT12=
EXTT13=
EXTT14=
EXTT15=
EXTT16=
EXTT17=
EXTT18=
EXTT19=
EXTT20=
EXTT21=
EXTT22=
EXTT23=
PLAYORDER=
